External Loads File
version=1
nRows=77
nColumns=13
Range=5.000000e-03-10 seconds
endheader
time 	forceRightX 	forceRightY 	forceRightZ 	pointRightX 	pointRightY 	pointRightZ 	forceLeftX 	forceLeftY 	forceLeftZ 	pointLeftX 	pointLeftY 	pointLeftZ 		
5.005000 259.115087 788.221127 -0.000000 0.255053 0.150807 -0.159430 -85.511093 -58.875731 -0.000000 0.235269 0.486960 -0.400108
5.010000 261.150733 743.761692 -0.000000 0.245680 0.148972 -0.158893 -88.665079 -51.259227 -0.000000 0.245136 0.489251 -0.399928
5.015000 260.359155 692.979391 -0.000000 0.236283 0.147748 -0.158336 -90.679630 -41.997529 -0.000000 0.255027 0.490779 -0.399943
5.020000 256.499076 636.819224 -0.000000 0.227002 0.147150 -0.157584 -91.461324 -31.493113 -0.000000 0.264815 0.491596 -0.400059
5.025000 249.890573 576.211125 -0.000000 0.217635 0.147403 -0.156776 -90.974124 -20.186087 -0.000000 0.274246 0.491886 -0.400258
5.030000 241.342562 511.945218 -0.000000 0.208453 0.148469 -0.156179 -89.233117 -8.447201 -0.000000 0.283871 0.491605 -0.400298
5.035000 230.675441 445.250470 -0.000000 0.199289 0.150334 -0.155595 -86.267348 3.275108 -0.000000 0.293205 0.490719 -0.400421
5.040000 217.656518 377.332394 -0.000000 0.190380 0.152844 -0.155194 -82.207989 14.659543 -0.000000 0.302098 0.489280 -0.400425
5.045000 202.640905 308.891948 -0.000000 0.181781 0.156157 -0.155134 -77.276484 25.738352 -0.000000 0.310582 0.487094 -0.400558
5.050000 185.760501 240.594177 -0.000000 0.173384 0.160307 -0.155236 -71.743879 36.792132 -0.000000 0.318735 0.484341 -0.400776
5.055000 166.833880 173.570688 -0.000000 0.165278 0.165119 -0.155399 -65.972977 48.220570 -0.000000 0.326271 0.480793 -0.400878
5.060000 146.178044 109.160402 -0.000000 0.157520 0.170467 -0.155486 -60.381975 60.623542 -0.000000 0.333272 0.476618 -0.400966
5.065000 124.447466 48.702098 -0.000000 0.150029 0.176496 -0.155614 -55.373089 74.783311 -0.000000 0.339933 0.471647 -0.401111
5.070000 102.118181 -6.058167 -0.000000 0.143027 0.183231 -0.155890 -51.601486 91.404197 -0.000000 0.345750 0.465961 -0.401063
5.075000 79.781857 -53.879213 -0.000000 0.136374 0.190466 -0.156359 -49.348385 111.464902 -0.000000 0.351535 0.459264 -0.401392
5.080000 58.089300 -93.109174 -0.000000 0.130075 0.198090 -0.156641 -49.181573 135.608523 -0.000000 0.356484 0.451854 -0.401801
5.085000 37.846262 -122.703222 -0.000000 0.124324 0.205910 -0.156849 -51.194142 164.375142 -0.000000 0.360928 0.443610 -0.402276
5.090000 20.028140 -142.114152 -0.000000 0.119132 0.213860 -0.156897 -55.319663 197.846561 -0.000000 0.364850 0.434787 -0.402759
5.095000 5.466055 -151.580128 -0.000000 0.114414 0.221971 -0.156845 -61.033696 235.606922 -0.000000 0.368399 0.425371 -0.403087
5.100000 -5.095077 -152.113464 -0.000000 0.110204 0.230314 -0.156876 -67.710445 276.638803 -0.000000 0.371908 0.415629 -0.402937
5.105000 -11.162614 -145.396831 -0.000000 0.106237 0.238905 -0.156688 -74.767997 319.493628 -0.000000 0.375007 0.405556 -0.402563
5.110000 -12.825825 -133.491582 -0.000000 0.102632 0.248032 -0.156588 -81.255600 362.694542 -0.000000 0.377812 0.395029 -0.402437
5.115000 -10.267279 -118.568766 -0.000000 0.099444 0.257344 -0.156450 -87.094523 404.767978 -0.000000 0.380277 0.384154 -0.402586
5.120000 -4.341722 -102.554768 -0.000000 0.096706 0.267164 -0.156306 -91.658924 444.794640 -0.000000 0.382472 0.373076 -0.402602
5.125000 3.969550 -86.928295 -0.000000 0.094487 0.277416 -0.156249 -94.991824 482.164482 -0.000000 0.384368 0.362028 -0.402573
5.130000 13.479582 -72.607141 -0.000000 0.092909 0.287759 -0.156101 -96.992130 516.650879 -0.000000 0.385767 0.350747 -0.402619
5.135000 23.067173 -60.032953 -0.000000 0.091155 0.298306 -0.157100 -97.561051 548.319007 -0.000000 0.386689 0.339617 -0.402260
5.140000 31.862297 -49.339632 -0.000000 0.090939 0.308873 -0.157104 -97.028984 577.463427 -0.000000 0.387044 0.328399 -0.402455
5.145000 39.223901 -40.557604 -0.000000 0.091287 0.319365 -0.157269 -95.693714 604.682892 -0.000000 0.387086 0.317327 -0.402975
5.150000 44.708115 -33.744655 -0.000000 0.092358 0.329853 -0.157300 -93.313793 630.860194 -0.000000 0.386205 0.306268 -0.402461
5.155000 48.087353 -28.931740 -0.000000 0.094377 0.340400 -0.157261 -89.895926 656.862681 -0.000000 0.385118 0.295308 -0.402159
5.160000 49.286497 -26.081282 -0.000000 0.096652 0.350734 -0.157377 -86.121671 683.329680 -0.000000 0.383422 0.284469 -0.401976
5.165000 48.233556 -25.267086 -0.000000 0.099698 0.361047 -0.157474 -81.072194 710.874629 -0.000000 0.381142 0.273739 -0.401818
5.170000 44.933342 -26.472683 -0.000000 0.103418 0.371293 -0.157614 -74.376410 739.765622 -0.000000 0.378172 0.263170 -0.401683
5.175000 39.474277 -29.520776 -0.000000 0.107849 0.381257 -0.157751 -66.444632 769.993164 -0.000000 0.374557 0.252982 -0.401570
5.180000 31.945789 -34.185996 -0.000000 0.112820 0.391148 -0.157895 -56.048598 801.572121 -0.000000 0.370382 0.242965 -0.401276
5.185000 22.557997 -40.043835 -0.000000 0.118375 0.400652 -0.158089 -43.600901 834.248141 -0.000000 0.365569 0.233229 -0.401122
5.190000 11.525745 -46.665502 -0.000000 0.124579 0.409867 -0.158234 -28.295015 867.676810 -0.000000 0.360134 0.223794 -0.400986
5.195000 -0.877971 -53.565352 -0.000000 0.131371 0.418796 -0.158421 -9.667186 901.229090 -0.000000 0.354080 0.214656 -0.401077
5.200000 -14.270910 -60.220972 -0.000000 0.138670 0.427330 -0.158586 11.718027 933.992063 -0.000000 0.347532 0.205994 -0.400953
5.205000 -28.314767 -66.053350 -0.000000 0.146442 0.435695 -0.158768 36.715951 964.787157 -0.000000 0.340492 0.197723 -0.400750
5.210000 -42.488786 -70.488940 -0.000000 0.154525 0.443406 -0.158995 63.871487 992.290515 -0.000000 0.333001 0.189860 -0.400645
5.215000 -56.305480 -72.955026 -0.000000 0.163087 0.450462 -0.159194 92.725529 1015.134534 -0.000000 0.325108 0.182746 -0.400582
5.220000 -69.280778 -72.903754 -0.000000 0.171847 0.456895 -0.159433 122.817831 1031.959245 -0.000000 0.316805 0.176132 -0.400501
5.225000 -80.917017 -69.895174 -0.000000 0.180659 0.462875 -0.159910 152.876967 1041.578144 -0.000000 0.308197 0.170147 -0.400400
5.230000 -90.965026 -63.344561 -0.000000 0.190568 0.468143 -0.159670 184.875176 1042.419479 -0.000000 0.299327 0.164794 -0.400331
5.235000 -98.735410 -53.494821 -0.000000 0.200006 0.473074 -0.160276 213.659855 1034.188684 -0.000000 0.290291 0.160059 -0.400256
5.240000 -104.045254 -40.348958 -0.000000 0.210082 0.477430 -0.160220 241.227914 1015.581398 -0.000000 0.281159 0.155949 -0.400210
5.245000 -106.529801 -24.924549 -0.000000 0.219426 0.481179 -0.160731 262.607251 987.073481 -0.000000 0.272011 0.152478 -0.400156
5.250000 -106.320515 -7.634500 -0.000000 0.229120 0.484412 -0.161110 280.771536 947.603153 -0.000000 0.262796 0.149573 -0.400235
5.255000 -103.485032 10.610936 -0.000000 0.238958 0.487406 -0.161260 294.408164 897.389933 -0.000000 0.253583 0.147458 -0.400290
5.260000 -98.230482 28.905585 -0.000000 0.248544 0.489577 -0.161579 302.153855 837.137926 -0.000000 0.244354 0.146053 -0.400232
5.265000 -90.835858 46.638929 -0.000000 0.258139 0.491215 -0.161818 304.407555 767.463786 -0.000000 0.235197 0.145351 -0.400102
5.270000 -81.750436 63.205244 -0.000000 0.267496 0.492172 -0.161932 300.253318 689.942940 -0.000000 0.226257 0.145218 -0.400303
5.275000 -71.512232 78.327418 -0.000000 0.276568 0.492513 -0.162025 289.831029 606.127445 -0.000000 0.217591 0.145783 -0.400454
5.280000 -60.629195 92.022215 -0.000000 0.285421 0.492376 -0.162008 273.828233 517.467303 -0.000000 0.209092 0.147189 -0.400506
5.285000 -49.566563 104.528314 -0.000000 0.294220 0.491545 -0.162071 252.753700 425.644136 -0.000000 0.200840 0.149453 -0.400578
5.290000 -38.990126 116.216739 -0.000000 0.302419 0.490141 -0.162276 226.420338 333.378863 -0.000000 0.192909 0.152298 -0.400625
5.295000 -29.289770 127.812273 -0.000000 0.310150 0.488141 -0.162474 196.401715 243.221670 -0.000000 0.185257 0.155797 -0.400647
5.300000 -20.899314 140.196256 -0.000000 0.317293 0.485445 -0.162525 164.283818 157.966124 -0.000000 0.177880 0.159919 -0.400663
5.305000 -14.054360 154.475484 -0.000000 0.324104 0.481887 -0.162754 131.814687 79.756362 -0.000000 0.170711 0.164371 -0.400715
5.310000 -8.839104 171.847317 -0.000000 0.330827 0.477787 -0.162738 100.286704 10.161287 -0.000000 0.163572 0.169359 -0.400641
5.315000 -5.528279 193.372431 -0.000000 0.336597 0.472787 -0.162654 70.546113 -49.538511 -0.000000 0.156182 0.174908 -0.399926
5.320000 -4.080805 219.764220 -0.000000 0.342344 0.466817 -0.162681 43.214210 -98.580730 -0.000000 0.149387 0.181027 -0.399832
5.325000 -4.654341 251.170775 -0.000000 0.347680 0.460272 -0.162611 18.763069 -136.400782 -0.000000 0.142893 0.187605 -0.399602
5.330000 -7.276179 287.088007 -0.000000 0.352456 0.452813 -0.162657 -2.465529 -162.786365 -0.000000 0.136808 0.194490 -0.399565
5.335000 -11.573063 326.384358 -0.000000 0.356999 0.444466 -0.162829 -20.338035 -177.846600 -0.000000 0.131082 0.201693 -0.399595
5.340000 -17.367771 367.450478 -0.000000 0.361531 0.435707 -0.162679 -34.420798 -182.158960 -0.000000 0.125604 0.209264 -0.399559
5.345000 -23.865871 408.513902 -0.000000 0.365772 0.425681 -0.162791 -44.419315 -176.917839 -0.000000 0.120501 0.217219 -0.399586
5.350000 -32.184691 447.793726 -0.000000 0.369633 0.415979 -0.163005 -49.296547 -164.184784 -0.000000 0.115618 0.225410 -0.399629
5.355000 -40.827924 483.999787 -0.000000 0.373468 0.405934 -0.162945 -49.470595 -146.160069 -0.000000 0.111239 0.234202 -0.399741
5.360000 -50.177646 516.235159 -0.000000 0.376584 0.395662 -0.163260 -44.988156 -125.327433 -0.000000 0.107145 0.243287 -0.399921
5.365000 -59.058375 544.319954 -0.000000 0.379456 0.385202 -0.163468 -36.735551 -103.804955 -0.000000 0.103458 0.252942 -0.400174
5.370000 -67.354118 568.491768 -0.000000 0.381937 0.374501 -0.163596 -25.574550 -83.378811 -0.000000 0.100330 0.262934 -0.400344
5.375000 -74.894916 589.348894 -0.000000 0.384027 0.363775 -0.163596 -12.597333 -65.239452 -0.000000 0.097725 0.273214 -0.400543
5.380000 -81.220899 607.771499 -0.000000 0.385537 0.352991 -0.163513 1.018833 -49.965301 -0.000000 0.095699 0.283782 -0.400693
5.385000 -85.945995 624.813623 -0.000000 0.386557 0.342142 -0.163527 14.220921 -37.662905 -0.000000 0.094339 0.294579 -0.400809
